<mxfile host="app.diagrams.net" modified="2024-05-14T09:32:14.067Z" agent="Mozilla/5.0 (Windows NT 10.0; Win64; x64) AppleWebKit/537.36 (KHTML, like Gecko) Chrome/124.0.0.0 Safari/537.36" version="24.4.0" etag="o2G0epuVX1_xLkSgN7eF" type="github">
  <diagram name="Page-1" id="haJim1n710lQX5ImPUMx">
    <mxGraphModel>
      <root>
        <mxCell id="0" />
        <mxCell id="1" parent="0" />
      </root>
    </mxGraphModel>
  </diagram>
</mxfile>
